# xmcd
#
# Track frame offsets: 
#        150
#        18907
#        37481
#        51713
#        65468
#        84207
#        98114
#        114952
#        126758
#        147934
#        160103
#
# Disc length: 2330 seconds
#
# Revision: 0
# Processed by: cddbd v1.4PL0 Copyright (c) Steve Scherf et al.
# Submitted via: ExactAudioCopy v0.90b4
#
DISCID=9309180b
DTITLE=Nothing New - a mess of blues
DYEAR=2003
DGENRE=Blues
TTITLE0=Before You Accuse Me
TTITLE1=Knockin' On Heaven's Door
TTITLE2=A Mess Of Blues
TTITLE3=Little Sister
TTITLE4=From Four Until Late
TTITLE5=Ain't That Loving You Baby
TTITLE6=I Shall Be Released
TTITLE7=Good Luck Charm
TTITLE8=Sweet Home Chicago
TTITLE9=SUSIE-Q
TTITLE10=Come Together
EXTD=
EXTT0=
EXTT1=
EXTT2=
EXTT3=
EXTT4=
EXTT5=
EXTT6=
EXTT7=
EXTT8=
EXTT9=
EXTT10=
PLAYORDER=
